<svg width="72" height="72" viewBox="0 0 72 72" fill="none" xmlns="http://www.w3.org/2000/svg">
<rect width="72" height="72" rx="16" fill="black"/>
<path d="M35.6232 40.9407C38.5594 40.9407 40.9397 38.5604 40.9397 35.6242C40.9397 32.6879 38.5594 30.3076 35.6232 30.3076C32.6869 30.3076 30.3066 32.6879 30.3066 35.6242C30.3066 38.5604 32.6869 40.9407 35.6232 40.9407Z" fill="#61DAFB"/>
<path d="M55.8176 26.8563C54.7915 26.4832 53.7189 26.1101 52.5996 25.7836C52.8795 24.6644 53.1126 23.5451 53.2992 22.4725C54.2785 16.3165 53.2059 11.9793 50.2212 10.3004C49.3351 9.78738 48.3557 9.5542 47.2365 9.5542C43.9719 9.5542 39.8213 11.9793 35.624 16.0366C31.4268 11.9793 27.2761 9.5542 24.0116 9.5542C22.8923 9.5542 21.9129 9.78738 21.0269 10.3004C18.0421 12.0259 16.9695 16.3631 17.9489 22.4725C18.1354 23.5451 18.3686 24.6644 18.6484 25.7836C17.5291 26.1101 16.4565 26.4365 15.4305 26.8563C9.60096 29.0948 6.42969 32.1728 6.42969 35.6239C6.42969 39.075 9.64759 42.153 15.4305 44.3915C16.4565 44.7646 17.5291 45.1377 18.6484 45.4642C18.3686 46.5834 18.1354 47.7027 17.9489 48.7753C16.9695 54.9313 18.0421 59.2685 21.0269 60.9474C21.9129 61.4604 22.8923 61.6936 24.0116 61.6936C27.3228 61.6936 31.4734 59.2685 35.624 55.2112C39.8213 59.2685 43.9719 61.6936 47.2365 61.6936C48.3557 61.6936 49.3351 61.4604 50.2212 60.9474C53.2059 59.2219 54.2785 54.8847 53.2992 48.7753C53.1126 47.7027 52.8795 46.5834 52.5996 45.4642C53.7189 45.1377 54.7915 44.8113 55.8176 44.3915C61.6471 42.153 64.8184 39.075 64.8184 35.6239C64.8184 32.1728 61.6471 29.0948 55.8176 26.8563ZM48.9154 12.6322C50.8275 13.7515 51.4804 17.2026 50.6876 22.0994C50.5476 23.0787 50.3145 24.1047 50.0346 25.1774C47.6096 24.6177 45.0446 24.2446 42.3397 24.0115C40.754 21.7729 39.1217 19.7676 37.4895 17.9487C40.9406 14.5443 44.4383 12.2125 47.2831 12.2125C47.8894 12.2125 48.449 12.3524 48.9154 12.6322ZM43.6921 40.2875C42.8527 41.7799 41.8733 43.2723 40.8473 44.7646C39.1217 44.9045 37.3962 44.9512 35.624 44.9512C33.8052 44.9512 32.0797 44.9045 30.4008 44.7646C29.3748 43.2723 28.442 41.7799 27.6026 40.2875C26.7165 38.7485 25.877 37.1629 25.1308 35.6239C25.877 34.0849 26.7165 32.4993 27.6026 30.9603C28.442 29.4679 29.4214 27.9755 30.4474 26.4832C32.1729 26.3433 33.8985 26.2966 35.6707 26.2966C37.4895 26.2966 39.215 26.3433 40.8939 26.4832C41.9199 27.9755 42.8527 29.4679 43.6921 30.9603C44.5782 32.4993 45.4176 34.0849 46.1638 35.6239C45.371 37.1629 44.5782 38.7019 43.6921 40.2875ZM47.5629 38.7485C48.2625 40.3808 48.8221 41.9664 49.3351 43.5521C47.7495 43.9252 46.0706 44.205 44.2984 44.4382C44.858 43.5521 45.4643 42.6194 45.9773 41.64C46.5369 40.6606 47.0499 39.6813 47.5629 38.7485ZM35.624 51.387C34.5048 50.1744 33.4321 48.8686 32.4061 47.5162C33.4788 47.5628 34.5514 47.6094 35.624 47.6094C36.6967 47.6094 37.7693 47.5628 38.8419 47.5162C37.8159 48.8686 36.7433 50.1744 35.624 51.387ZM26.9497 44.3915C25.1775 44.1584 23.4986 43.8785 21.9129 43.5054C22.4259 41.9664 22.9856 40.3342 23.6851 38.7019C24.1981 39.6346 24.7111 40.614 25.2708 41.5467C25.8304 42.5727 26.39 43.4588 26.9497 44.3915ZM23.6851 32.4993C22.9856 30.867 22.4259 29.2814 21.9129 27.6957C23.4986 27.3226 25.1775 27.0428 26.9497 26.8096C26.39 27.6957 25.7838 28.6285 25.2708 29.6078C24.7111 30.5872 24.1981 31.5665 23.6851 32.4993ZM35.624 19.8608C36.7433 21.0734 37.8159 22.3792 38.8419 23.7316C37.7693 23.685 36.6967 23.6384 35.624 23.6384C34.5514 23.6384 33.4788 23.685 32.4061 23.7316C33.4321 22.3792 34.5048 21.0734 35.624 19.8608ZM45.9773 29.6545L44.2984 26.8563C46.0706 27.0895 47.7495 27.3693 49.3351 27.7424C48.8221 29.2814 48.2625 30.9136 47.5629 32.5459C47.0499 31.5665 46.5369 30.5872 45.9773 29.6545ZM20.5605 22.0994C19.7677 17.2026 20.4206 13.7515 22.3327 12.6322C22.799 12.3524 23.3587 12.2125 23.9649 12.2125C26.7631 12.2125 30.2608 14.4976 33.7586 17.9487C32.1263 19.7209 30.494 21.7729 28.9084 24.0115C26.2035 24.2446 23.6385 24.6644 21.2134 25.1774C20.9336 24.1047 20.747 23.0787 20.5605 22.0994ZM9.04132 35.6239C9.04132 33.432 11.6996 31.1002 16.3632 29.3746C17.2959 29.0015 18.3219 28.6751 19.3479 28.3953C20.0941 30.7271 21.0269 33.1988 22.1461 35.6705C21.0269 38.1423 20.0475 40.5674 19.3479 42.8992C12.9121 41.0337 9.04132 38.2355 9.04132 35.6239ZM22.3327 58.6156C20.4206 57.4963 19.7677 54.0452 20.5605 49.1484C20.7004 48.1691 20.9336 47.1431 21.2134 46.0704C23.6385 46.6301 26.2035 47.0032 28.9084 47.2363C30.494 49.4749 32.1263 51.4803 33.7586 53.2991C30.3075 56.7035 26.8098 59.0353 23.9649 59.0353C23.3587 59.0353 22.799 58.8954 22.3327 58.6156ZM50.6876 49.1484C51.4804 54.0452 50.8275 57.4963 48.9154 58.6156C48.449 58.8954 47.8894 59.0353 47.2831 59.0353C44.4849 59.0353 40.9872 56.7502 37.4895 53.2991C39.1217 51.5269 40.754 49.4749 42.3397 47.2363C45.0446 47.0032 47.6096 46.5834 50.0346 46.0704C50.3145 47.1431 50.501 48.1691 50.6876 49.1484ZM54.8848 41.8732C53.9521 42.2463 52.9261 42.5727 51.9001 42.8525C51.1539 40.5207 50.2212 38.049 49.1019 35.5773C50.2212 33.1055 51.2006 30.6805 51.9001 28.3486C58.3359 30.2141 62.2067 33.0123 62.2067 35.6239C62.2067 37.8158 59.5018 40.1476 54.8848 41.8732Z" fill="#61DAFB"/>
</svg>
